<?xml version="1.0" encoding="UTF-8" standalone="no"?>
<!-- Uploaded to: SVG Repo, www.svgrepo.com, Generator: SVG Repo Mixer Tools -->

<svg
   fill="#000000"
   version="1.1"
   id="Capa_1"
   width="800px"
   height="800px"
   viewBox="0 0 407.286 407.285"
   xml:space="preserve"
   sodipodi:docname="gas-pump-svgrepo-com.svg"
   inkscape:version="1.3.2 (091e20e, 2023-11-25, custom)"
   xmlns:inkscape="http://www.inkscape.org/namespaces/inkscape"
   xmlns:sodipodi="http://sodipodi.sourceforge.net/DTD/sodipodi-0.dtd"
   xmlns="http://www.w3.org/2000/svg"
   xmlns:svg="http://www.w3.org/2000/svg"><defs
   id="defs3" /><sodipodi:namedview
   id="namedview3"
   pagecolor="#ffffff"
   bordercolor="#000000"
   borderopacity="0.25"
   inkscape:showpageshadow="2"
   inkscape:pageopacity="0.0"
   inkscape:pagecheckerboard="0"
   inkscape:deskcolor="#d1d1d1"
   inkscape:zoom="1.42125"
   inkscape:cx="399.6482"
   inkscape:cy="400"
   inkscape:window-width="5120"
   inkscape:window-height="1351"
   inkscape:window-x="-9"
   inkscape:window-y="-9"
   inkscape:window-maximized="1"
   inkscape:current-layer="Capa_1" />
<g
   id="g3">
	<g
   id="g2">
		<path
   d="M400.927,348.367c-1.811-17.321-9.423-36.684-22.628-57.546c-22.174-35.033-34.9-77.122-38.064-125.559l34.164-21.773    c0.844-0.543,1.62-1.201,2.307-1.954c1.392-1.53,2.36-3.39,2.804-5.38l11.253-50.745c1.128-5.087-1.279-10.377-5.858-12.865    L351.958,54.63c-0.6-0.325-1.241-0.602-1.908-0.825l31.027-43.869c0.615-0.869,0.427-2.069-0.429-2.705l-9.199-6.844    c-0.854-0.635-2.057-0.47-2.714,0.366L329.843,51.14c-0.779,1.006-1.316,2.191-1.554,3.426l-16.599,86.586    c-0.192,0.891-0.05,1.513,0.142,2.229l6.888,20.68c3.1,53.125,16.975,99.463,41.495,138.206    c20.023,31.637,25.162,59.32,13.746,74.051c-6.688,8.627-18.604,11.748-30.371,7.955c-16.084-5.189-26.139-21.072-26.892-42.483    c-1.55-44.041-19.301-83.61-51.334-114.431c-6.973-6.709-13.9-12.313-20.257-16.91v-7.154h10.67    c10.728,0,19.795-7.939,21.212-18.571l21.4-160.493c0.816-6.115-1.047-12.284-5.111-16.926C289.216,2.661,283.347,0,277.178,0    H27.342c-6.17,0-12.038,2.662-16.102,7.303c-4.064,4.641-5.927,10.811-5.111,16.926l21.4,160.493    c1.417,10.632,10.486,18.571,21.213,18.571h10.67v95.225h-6.924c-11.819,0-21.4,9.582-21.4,21.4v65.801    c0,11.818,9.581,21.4,21.4,21.4h199.545c11.818,0,21.399-9.582,21.399-21.4v-65.801c0-11.818-9.581-21.4-21.399-21.4h-6.925    v-60.721c1.983,1.743,3.983,3.584,5.984,5.528c27.98,27.185,42.857,60.565,44.219,99.215    c1.276,36.276,22.382,55.862,41.708,62.099c5.527,1.783,11.102,2.646,16.54,2.646c14.683,0,28.362-6.305,37.317-17.859    C399.145,378.758,402.62,364.561,400.927,348.367z M365.907,88.96l-7.669,39.05l-18.193,9.649l4.506-60.312L365.907,88.96z     M237.043,160.493H67.478L51.786,42.8h200.95L237.043,160.493z"
   id="path1" />
		<path
   d="M154.239,113.758l-37.012-55.146c-0.807-1.204-2.383-1.704-3.764-1.114c-1.559,0.67-2.283,2.477-1.617,4.038    l26.124,61.061c-3.005,5.188-3.315,11.77-0.245,17.423c4.69,8.632,15.491,11.828,24.124,7.139    c8.633-4.69,11.828-15.491,7.139-24.123C165.916,117.382,160.226,114.061,154.239,113.758z"
   id="path2" />
	</g>
</g>
<path
   style="fill:#f9f9f9;stroke-width:0.703606"
   d="m 97.801231,798.91807 c -16.692835,-2.22396 -31.320638,-15.45112 -35.17748,-31.80912 -1.548565,-6.56795 -1.549892,-141.54056 -0.0015,-148.10786 1.804056,-7.65144 5.067036,-13.33258 11.256333,-19.59828 9.213439,-9.32719 16.400633,-12.11123 32.893586,-12.7417 l 10.37819,-0.39673 v -93.38222 -93.38223 l -13.89622,-0.41621 C 93.710529,398.79786 88.035659,398.30593 85.136324,397.51315 71.063313,393.6651 59.339448,381.93536 55.614965,367.977 53.948233,361.73054 12.313105,47.773879 12.313105,41.452067 c 0,-18.431831 13.099902,-35.0355743 31.318326,-39.6950624 5.441031,-1.39158128 7.916583,-1.40520161 255.401109,-1.40520161 246.56823,0 249.97943,0.0185687 255.34142,1.38993461 10.33203,2.642488 19.47697,9.1859774 24.85971,17.7878974 4.81871,7.700551 6.58692,13.674088 6.60533,22.314696 0.006,3.022145 -9.07173,73.441509 -21.1371,163.960419 -17.3459,130.13553 -21.48207,159.70952 -23.00427,164.48276 -3.25838,10.21743 -10.34165,18.59831 -20.03867,23.70963 -7.40323,3.90227 -11.34476,4.65103 -26.84805,5.10019 l -13.89622,0.4026 0.0358,7.11019 0.0358,7.1102 8.58341,6.4315 c 24.2753,18.18937 48.39667,42.32127 67.43114,67.46061 37.55442,49.59912 59.7664,109.26031 63.91171,171.66637 1.35145,20.3455 2.13051,27.8165 3.61528,34.66955 8.73698,40.32606 37.81013,65.77499 73.09757,63.9853 15.14403,-0.76806 28.89126,-7.59029 37.09115,-18.40697 14.64493,-19.31834 15.70604,-48.9839 3.0635,-85.64859 -6.6979,-19.42471 -14.34301,-34.68539 -32.24745,-64.37056 -27.20893,-45.11184 -45.50386,-87.95813 -58.836,-137.79249 -10.08756,-37.70645 -17.33106,-82.45711 -19.81654,-122.42744 -0.40079,-6.44522 -1.03402,-8.84262 -7.54098,-28.54971 l -7.10344,-21.51364 16.60829,-86.62329 c 9.13456,-47.64282 17.11523,-87.67144 17.73481,-88.9525 2.14352,-4.431967 78.7859,-102.93471801 80.25496,-103.14577279 1.75008,-0.25141522 21.17038,14.03841979 21.80771,16.04650779 0.34476,1.08624 -6.3549,11.033204 -29.25946,43.441249 -16.33866,23.117834 -30.3139,42.902856 -31.05611,43.966706 l -1.34945,1.93429 1.63057,0.63064 c 0.89681,0.34685 16.82847,8.89177 35.40366,18.9887 30.05411,16.3365 34.17204,18.78042 37.39603,22.19373 4.22677,4.47496 6.19363,9.37529 6.09302,15.18027 -0.0974,5.61448 -22.42512,105.68437 -24.48936,109.75799 -0.89949,1.775 -3.0094,4.48719 -4.68869,6.02709 -1.6793,1.5399 -18.17203,12.42238 -36.65049,24.18328 -32.69837,20.8114 -33.59718,21.4428 -33.59718,23.60121 0,1.21977 0.48264,7.42221 1.07252,13.7832 8.39704,90.54871 31.59846,163.51448 73.48143,231.09051 24.28953,39.19003 37.64784,71.22193 43.42698,104.13368 0.94804,5.39902 1.23596,10.96495 1.23722,23.9226 0.002,14.96922 -0.18083,17.72539 -1.60626,24.27441 -4.56331,20.96605 -13.37231,37.33305 -27.2171,50.56873 -12.96105,12.39085 -27.02973,19.64256 -46.06761,23.74557 -8.9046,1.91909 -28.07317,1.76859 -37.68841,-0.29586 -10.63908,-2.28433 -17.2913,-4.62199 -27.39515,-9.62695 -11.29032,-5.59269 -21.57223,-13.19944 -30.61191,-22.64718 -22.35448,-23.36366 -34.35934,-53.74881 -36.22979,-91.70033 -0.6751,-13.69762 -1.70514,-24.83737 -3.25296,-35.1803 -8.16259,-54.54426 -30.20301,-101.41686 -67.87812,-144.35406 -6.57637,-7.49491 -26.74667,-27.3258 -27.79347,-27.3258 -0.37468,0 -0.63656,24.56297 -0.63656,59.70548 v 59.70549 l 10.72999,0.41224 c 7.91348,0.30403 11.93883,0.78965 15.3353,1.85007 12.2483,3.82406 22.93732,14.02919 27.52507,26.27903 l 1.63977,4.37838 0.19343,71.95609 c 0.21343,79.39688 0.39583,75.71308 -4.21532,85.13183 -2.68435,5.48306 -9.42647,12.93397 -14.91736,16.48549 -2.29156,1.48221 -6.72428,3.56228 -9.85049,4.62234 l -5.68402,1.92738 -199.82409,0.0921 C 191.94378,799.43909 100.1232,799.22743 97.801301,798.91806 Z M 467.14697,306.59631 c 0.65484,-4.93404 7.59848,-57.01847 15.43032,-115.74319 L 496.81701,84.080915 H 299.24403 c -157.57717,0 -197.57757,0.17804 -197.5957,0.879507 -0.0125,0.483729 6.85751,52.568158 15.2667,115.743188 l 15.28944,114.86367 h 166.87595 166.87594 z m 218.96665,-45.32174 c 9.6208,-5.09406 17.57943,-9.32361 17.68585,-9.399 0.29963,-0.21227 14.9313,-75.11666 14.93277,-76.44581 8.5e-4,-0.81674 -6.35771,-4.63687 -20.84069,-12.52069 -11.46308,-6.23995 -20.98524,-11.20207 -21.16037,-11.02694 -0.17513,0.17513 -2.17478,25.28174 -4.44367,55.79246 -2.26888,30.51073 -4.28057,57.13632 -4.47041,59.16798 -0.18983,2.03166 -0.0866,3.69393 0.2295,3.69393 0.31606,0 8.44622,-4.16787 18.06702,-9.26193 z"
   id="path3"
   transform="matrix(0.5091075,0,0,0.5091075,0,-5e-4)" /><path
   style="fill:#f9f9f9;stroke-width:0.703606"
   d="m 293.59554,292.00398 c -8.35701,-2.12159 -15.0828,-6.56569 -19.95678,-13.18652 -7.3589,-9.99637 -8.83798,-22.19886 -4.12015,-33.99157 l 1.78089,-4.45153 -25.71131,-60.04298 c -15.70591,-36.67762 -25.71132,-60.90749 -25.71132,-62.26453 0,-1.56191 0.55046,-2.65452 1.8539,-3.67981 2.5832,-2.03194 5.25051,-1.86042 7.41224,0.47664 0.98436,1.0642 17.90183,25.95865 37.59437,55.32101 19.69255,29.36235 36.12318,53.46358 36.51252,53.5583 0.38933,0.0947 2.60762,0.52795 4.92952,0.96276 17.96219,3.36369 30.8271,22.53038 26.87149,40.03432 -2.11248,9.34799 -6.51931,16.24284 -13.79531,21.58391 -7.47184,5.48484 -19.05748,7.86395 -27.66006,5.68 z"
   id="path4"
   transform="matrix(0.5091075,0,0,0.5091075,0,-5e-4)" /></svg>
