<?xml version="1.0" encoding="UTF-8" standalone="no"?>
<!-- Uploaded to: SVG Repo, www.svgrepo.com, Generator: SVG Repo Mixer Tools -->

<svg
   fill="#000000"
   width="800px"
   height="800px"
   viewBox="0 0 256 256"
   id="Flat"
   version="1.1"
   sodipodi:docname="headlights-fill-svgrepo-com.svg"
   inkscape:version="1.3.2 (091e20e, 2023-11-25, custom)"
   xmlns:inkscape="http://www.inkscape.org/namespaces/inkscape"
   xmlns:sodipodi="http://sodipodi.sourceforge.net/DTD/sodipodi-0.dtd"
   xmlns="http://www.w3.org/2000/svg"
   xmlns:svg="http://www.w3.org/2000/svg">
  <defs
     id="defs1" />
  <sodipodi:namedview
     id="namedview1"
     pagecolor="#ffffff"
     bordercolor="#000000"
     borderopacity="0.25"
     inkscape:showpageshadow="2"
     inkscape:pageopacity="0.0"
     inkscape:pagecheckerboard="0"
     inkscape:deskcolor="#d1d1d1"
     inkscape:zoom="1.42125"
     inkscape:cx="400"
     inkscape:cy="258.22339"
     inkscape:window-width="2224"
     inkscape:window-height="1250"
     inkscape:window-x="96"
     inkscape:window-y="83"
     inkscape:window-maximized="0"
     inkscape:current-layer="Flat" />
  <path
     d="M 191.99985,144.00015 H 63.999854 a 16.01833,16.01833 0 0 1 -16,-16 V 88.000146 A 79.99987,79.99987 0 0 1 128.60532,8.0021461 c 43.77832,0.32515 79.39453,36.6171399 79.39453,80.9018099 v 39.096194 a 16.01833,16.01833 0 0 1 -16,16 z m -103.999996,96 v -72 a 8,8 0 0 0 -16,0 v 72 a 8,8 0 0 0 16,0 z m 79.999996,-72 v 72 a 8,8 0 0 0 16,0 v -72 a 8,8 0 0 0 -16,0 z m -16,72 v -72 a 8,8 0 0 0 -16,0 v 72 a 8,8 0 0 0 16,0 z m -32,0 v -72 a 8,8 0 0 0 -16,0 v 72 a 8,8 0 0 0 16,0 z"
     id="path1" />
  <path
     style="fill:#f9f9f9;fill-opacity:1;stroke-width:0.225154"
     d="m 48.433175,80.717823 c 2.690573,-28.767245 20.92624,-54.127209 47.257092,-65.719455 7.693973,-3.3873 15.158673,-5.3953326 24.091473,-6.4807054 3.10973,-0.3778458 13.09821,-0.3741558 16.43623,0.00607 23.0056,2.6205244 43.21466,14.6041654 56.86429,33.7195944 7.08366,9.920202 12.21546,22.768074 13.92888,34.872032 0.74123,5.236259 0.8054,7.641168 0.80559,30.190891 2.1e-4,25.76578 0.0951,24.31401 -1.83502,28.07595 -1.41937,2.76644 -4.12866,5.39764 -6.96867,6.7678 -3.88981,1.87664 2.42038,1.72349 -71.01319,1.72349 -73.452956,0 -67.121359,0.15416 -71.025094,-1.72928 -4.009049,-1.93426 -7.213203,-5.90424 -8.348755,-10.3442 -0.428051,-1.67367 -0.44217,-2.54219 -0.412781,-25.39437 0.01674,-13.013788 0.115715,-24.573305 0.219955,-25.68782 z"
     id="path2" />
  <path
     style="fill:#f9f9f9;fill-opacity:1;stroke-width:0.225154"
     d="m 168.56403,165.48949 c 0.44215,-1.25895 1.40816,-2.68187 2.37692,-3.50117 2.2376,-1.89239 5.54435,-2.35529 8.1937,-1.14699 1.72075,0.78479 3.24834,2.31651 4.07305,4.08406 l 0.63032,1.35092 v 37.71328 37.71328 l -0.65315,1.41442 c -1.41206,3.05784 -4.6459,5.00247 -7.8376,4.71305 -2.70071,-0.24489 -5.26391,-2.0619 -6.52774,-4.62741 l -0.51713,-1.04975 -0.0469,-37.82586 c -0.0421,-33.95973 -0.0106,-37.92929 0.30852,-38.83783 z"
     id="path3" />
  <path
     style="fill:#f9f9f9;fill-opacity:1;stroke-width:0.225154"
     d="m 136.21423,167.0167 c 0.35024,-2.6874 2.10833,-5.0156 4.69254,-6.2142 1.03874,-0.48179 1.61564,-0.59385 3.08375,-0.599 1.59305,-0.006 1.98285,0.0807 3.30634,0.73229 1.82517,0.89853 3.32353,2.48246 4.05061,4.28193 l 0.5187,1.28374 0.0649,36.58751 c 0.0456,25.68734 -0.008,37.01606 -0.18089,38.02595 -0.47185,2.76178 -2.06596,4.8481 -4.6122,6.03633 -1.12651,0.5257 -1.65093,0.63045 -3.15689,0.6306 -1.58615,1.6e-4 -1.98859,-0.0897 -3.30635,-0.73846 -1.82516,-0.89852 -3.32353,-2.48245 -4.05061,-4.28193 l -0.51869,-1.28374 -0.0294,-36.58751 c -0.0162,-20.12313 0.046,-37.16621 0.13822,-37.87351 z"
     id="path4" />
  <path
     style="fill:#f9f9f9;fill-opacity:1;stroke-width:0.225154"
     d="m 104.26691,166.62424 c 0.49333,-2.51666 2.2407,-4.69591 4.668,-5.82174 1.03874,-0.48179 1.61564,-0.59385 3.08375,-0.599 1.59305,-0.006 1.98285,0.0807 3.30635,0.73229 1.82516,0.89853 3.32353,2.48246 4.0506,4.28193 l 0.5187,1.28374 v 37.48813 37.48813 l -0.5187,1.28374 c -0.72707,1.79948 -2.22544,3.38341 -4.0506,4.28193 -1.31776,0.64873 -1.7202,0.73862 -3.30635,0.73846 -1.50596,-1.5e-4 -2.03038,-0.1049 -3.15689,-0.6306 -2.49384,-1.16377 -4.10267,-3.22677 -4.59551,-5.8928 -0.30101,-1.62831 -0.30038,-73.0985 6.4e-4,-74.63421 z"
     id="path5" />
  <path
     style="fill:#f9f9f9;fill-opacity:1;stroke-width:0.225154"
     d="m 72.281937,166.46628 c 0.459344,-2.30129 2.319421,-4.59307 4.555222,-5.61243 1.161056,-0.52936 1.715837,-0.64142 3.209645,-0.64833 1.595968,-0.007 1.980759,0.0777 3.309168,0.73166 1.662663,0.81852 2.970519,2.13099 3.813501,3.82692 l 0.52783,1.0619 v 38.16359 38.16359 l -0.660979,1.3045 c -1.219193,2.40617 -3.754803,4.13427 -6.420883,4.37602 -3.152554,0.28586 -6.396304,-1.67537 -7.800602,-4.71641 l -0.653155,-1.41442 -0.03327,-37.15039 c -0.0183,-20.43272 0.05079,-37.57151 0.15352,-38.0862 z"
     id="path6" />
</svg>
